# xmcd
#
# Track frame offsets:
#	150
#	20760
#	41212
#
# Disc length: 1040 seconds
#
# Revision: 1
# Processed by: cddbd v1.5.1PL0 Copyright (c) Steve Scherf et al.
# Submitted via: dBpowerAMP V4.0
#
DISCID=23040e03
DTITLE=Joe Jackson - Selections from "Live 80-86"
DYEAR=1987
DGENRE=Rock
TTITLE0=I'm The Man
TTITLE1=Look Sharp!
TTITLE2=A Slow Song
EXTD=CD3 single that came with I'm The Man in late 1980's
EXTT0=
EXTT1=
EXTT2=
PLAYORDER=
